<?xml version="1.0" standalone="no"?>
<!DOCTYPE svg PUBLIC "-//W3C//DTD SVG 20010904//EN"
 "http://www.w3.org/TR/2001/REC-SVG-20010904/DTD/svg10.dtd">
<svg version="1.0" xmlns="http://www.w3.org/2000/svg"
 width="512.0000pt" height="512.0000pt" viewBox="0 0 512.000000 512.000000"
 preserveAspectRatio="xMidYMid meet">

<g transform="translate(0.000000,512.000000) scale(0.100000,-0.100000)"
fill="#3e384d" stroke="1000">
<path d="M2275 4855 c-517 -68 -979 -304 -1355 -691 -608 -627 -806 -1504
-525 -2324 37 -107 115 -294 129 -308 6 -6 246 118 246 127 0 5 -18 47 -40 95
-113 245 -180 551 -180 825 0 693 336 1323 905 1693 253 165 574 276 894 309
139 14 407 7 541 -16 882 -147 1539 -825 1655 -1708 19 -151 19 -393 0 -544
-121 -923 -837 -1621 -1767 -1722 -136 -15 -343 -13 -472 4 -61 8 -111 13
-113 11 -5 -5 -54 -269 -51 -272 13 -11 282 -34 407 -34 323 0 605 58 899 185
598 259 1072 774 1277 1389 83 247 116 451 116 712 0 262 -30 450 -112 699
-279 851 -1047 1476 -1934 1575 -122 13 -398 11 -520 -5z"/>
<path d="M2435 4199 c-20 -18 -39 -47 -45 -69 -7 -26 -10 -308 -8 -834 3 -785
3 -795 24 -822 11 -15 33 -37 48 -48 27 -21 37 -21 824 -24 535 -2 809 0 833
7 109 32 139 165 53 240 l-35 31 -729 0 -730 0 0 708 c0 449 -4 720 -10 744
-6 20 -26 50 -46 67 -30 27 -43 31 -89 31 -46 0 -59 -4 -90 -31z"/>
<path d="M1080 1781 c-19 -10 -44 -34 -55 -52 -19 -33 -20 -52 -20 -694 0
-620 1 -663 18 -688 31 -48 75 -69 135 -64 62 4 106 39 122 96 6 22 10 282 10
666 l0 631 -22 44 c-39 74 -117 100 -188 61z"/>
<path d="M1660 1783 c-19 -10 -45 -33 -57 -52 l-23 -34 0 -654 c0 -581 2 -659
16 -689 47 -98 201 -99 247 -1 15 32 17 99 17 689 0 630 -1 654 -20 685 -39
65 -117 89 -180 66z"/>
</g>
</svg>
